<svg width="6277" height="800" viewBox="0 0 6277 800" fill="none" xmlns="http://www.w3.org/2000/svg">
<rect x="549.275" y="504.062" width="127.88" height="63.9403" transform="rotate(45 549.275 504.062)" fill="url(#paint0_linear_102_20)"/>
<rect x="549.275" y="504.062" width="127.88" height="63.9403" transform="rotate(45 549.275 504.062)" stroke="black"/>
<path fill-rule="evenodd" clip-rule="evenodd" d="M319.701 639.403C496.268 639.403 639.403 496.268 639.403 319.701C639.403 143.135 496.268 0 319.701 0C143.135 0 0 143.135 0 319.701C0 496.268 143.135 639.403 319.701 639.403ZM319.701 548.821C446.24 548.821 548.821 446.24 548.821 319.701C548.821 193.162 446.24 90.5821 319.701 90.5821C193.162 90.5821 90.5821 193.162 90.5821 319.701C90.5821 446.24 193.162 548.821 319.701 548.821Z" fill="url(#paint1_linear_102_20)"/>
<rect x="611.614" y="513.654" width="266.418" height="138.537" rx="50" transform="rotate(45 611.614 513.654)" fill="url(#paint2_linear_102_20)"/>
<path d="M403.623 174.345C408.773 165.425 405.747 153.925 396.358 149.692C379.771 142.213 362.149 137.188 344.044 134.804C319.762 131.608 295.09 133.225 271.434 139.564C247.778 145.902 225.602 156.838 206.172 171.747C191.684 182.864 178.935 196.027 168.31 210.797C162.296 219.158 165.425 230.63 174.345 235.78V235.78C183.265 240.93 194.582 237.786 200.804 229.578C208.841 218.974 218.278 209.471 228.878 201.338C244.422 189.411 262.162 180.662 281.087 175.591C300.012 170.52 319.75 169.226 339.175 171.784C352.422 173.528 365.346 177.039 377.608 182.203C387.1 186.201 398.473 183.265 403.623 174.345V174.345Z" fill="url(#paint3_linear_102_20)"/>
<path d="M486.644 337.065C496.888 338.13 506.155 330.679 506.193 320.379C506.271 298.734 502.581 277.191 495.24 256.728C487.899 236.265 477.053 217.289 463.233 200.629C456.657 192.702 444.767 192.841 437.536 200.176V200.176C430.305 207.51 430.496 219.255 436.872 227.344C446.815 239.958 454.681 254.128 460.132 269.322C465.583 284.517 468.518 300.456 468.861 316.514C469.081 326.811 476.4 335.999 486.644 337.065V337.065Z" fill="url(#paint4_linear_102_20)"/>
<rect x="621.514" y="560.543" width="159.851" height="31.9701" rx="15.9851" transform="rotate(45 621.514 560.543)" fill="white"/>
<path d="M1229.14 462.447C1229.14 455.123 1228.01 448.613 1225.73 442.916C1223.61 437.219 1219.79 432.011 1214.25 427.291C1208.72 422.571 1200.91 418.014 1190.81 413.619C1180.89 409.062 1168.19 404.423 1152.73 399.703C1135.8 394.495 1120.18 388.717 1105.85 382.369C1091.69 375.859 1079.32 368.372 1068.74 359.908C1058.16 351.282 1049.95 341.435 1044.09 330.367C1038.23 319.137 1035.3 306.197 1035.3 291.549C1035.3 277.063 1038.31 263.88 1044.33 251.998C1050.51 240.117 1059.22 229.863 1070.45 221.236C1081.85 212.447 1095.27 205.693 1110.74 200.973C1126.2 196.09 1143.29 193.648 1162.01 193.648C1188.37 193.648 1211.08 198.531 1230.12 208.297C1249.33 218.062 1264.06 231.165 1274.31 247.604C1284.73 264.042 1289.94 282.19 1289.94 302.047H1229.14C1229.14 290.328 1226.62 279.993 1221.58 271.041C1216.69 261.926 1209.21 254.765 1199.12 249.557C1189.19 244.348 1176.57 241.744 1161.27 241.744C1146.79 241.744 1134.74 243.941 1125.14 248.336C1115.54 252.73 1108.38 258.671 1103.66 266.158C1098.94 273.645 1096.58 282.109 1096.58 291.549C1096.58 298.222 1098.12 304.326 1101.21 309.859C1104.31 315.23 1109.03 320.276 1115.38 324.996C1121.72 329.553 1129.7 333.867 1139.3 337.936C1148.9 342.005 1160.22 345.911 1173.24 349.654C1192.93 355.514 1210.1 362.024 1224.75 369.186C1239.4 376.184 1251.61 384.16 1261.37 393.111C1271.14 402.063 1278.46 412.236 1283.34 423.629C1288.23 434.859 1290.67 447.636 1290.67 461.959C1290.67 476.933 1287.66 490.442 1281.63 502.486C1275.61 514.368 1266.99 524.54 1255.76 533.004C1244.69 541.305 1231.34 547.734 1215.72 552.291C1200.25 556.686 1183 558.883 1163.96 558.883C1146.87 558.883 1130.02 556.604 1113.42 552.047C1096.98 547.49 1082.01 540.572 1068.5 531.295C1054.99 521.855 1044.25 510.136 1036.27 496.139C1028.3 481.979 1024.31 465.458 1024.31 446.578H1085.59C1085.59 458.134 1087.54 467.981 1091.45 476.119C1095.52 484.257 1101.13 490.93 1108.29 496.139C1115.46 501.184 1123.76 504.928 1133.2 507.369C1142.8 509.811 1153.05 511.031 1163.96 511.031C1178.28 511.031 1190.24 508.997 1199.85 504.928C1209.61 500.859 1216.94 495.162 1221.82 487.838C1226.7 480.514 1229.14 472.05 1229.14 462.447ZM1327.78 424.85V419.234C1327.78 400.191 1330.54 382.532 1336.08 366.256C1341.61 349.817 1349.59 335.576 1360 323.531C1370.58 311.324 1383.44 301.884 1398.58 295.211C1413.88 288.375 1431.13 284.957 1450.34 284.957C1469.7 284.957 1486.96 288.375 1502.09 295.211C1517.39 301.884 1530.33 311.324 1540.91 323.531C1551.49 335.576 1559.55 349.817 1565.08 366.256C1570.62 382.532 1573.38 400.191 1573.38 419.234V424.85C1573.38 443.893 1570.62 461.552 1565.08 477.828C1559.55 494.104 1551.49 508.346 1540.91 520.553C1530.33 532.597 1517.47 542.037 1502.34 548.873C1487.2 555.546 1470.03 558.883 1450.82 558.883C1431.46 558.883 1414.12 555.546 1398.82 548.873C1383.69 542.037 1370.83 532.597 1360.25 520.553C1349.67 508.346 1341.61 494.104 1336.08 477.828C1330.54 461.552 1327.78 443.893 1327.78 424.85ZM1386.62 419.234V424.85C1386.62 436.731 1387.84 447.962 1390.28 458.541C1392.72 469.12 1396.54 478.398 1401.75 486.373C1406.96 494.348 1413.63 500.615 1421.77 505.172C1429.91 509.729 1439.59 512.008 1450.82 512.008C1461.73 512.008 1471.17 509.729 1479.14 505.172C1487.28 500.615 1493.96 494.348 1499.16 486.373C1504.37 478.398 1508.2 469.12 1510.64 458.541C1513.24 447.962 1514.54 436.731 1514.54 424.85V419.234C1514.54 407.516 1513.24 396.448 1510.64 386.031C1508.2 375.452 1504.29 366.093 1498.92 357.955C1493.71 349.817 1487.04 343.469 1478.9 338.912C1470.93 334.192 1461.4 331.832 1450.34 331.832C1439.27 331.832 1429.67 334.192 1421.53 338.912C1413.55 343.469 1406.96 349.817 1401.75 357.955C1396.54 366.093 1392.72 375.452 1390.28 386.031C1387.84 396.448 1386.62 407.516 1386.62 419.234ZM1781.63 491.744V289.84H1840.72V554H1785.05L1781.63 491.744ZM1789.94 436.812L1809.71 436.324C1809.71 454.065 1807.76 470.423 1803.85 485.396C1799.95 500.208 1793.92 513.147 1785.79 524.215C1777.65 535.12 1767.23 543.665 1754.54 549.85C1741.84 555.872 1726.62 558.883 1708.88 558.883C1696.02 558.883 1684.22 557.011 1673.48 553.268C1662.74 549.524 1653.46 543.746 1645.65 535.934C1638 528.121 1632.06 517.949 1627.83 505.416C1623.59 492.883 1621.48 477.91 1621.48 460.494V289.84H1680.32V460.982C1680.32 470.585 1681.46 478.642 1683.73 485.152C1686.01 491.5 1689.11 496.627 1693.01 500.533C1696.92 504.439 1701.48 507.206 1706.68 508.834C1711.89 510.462 1717.43 511.275 1723.29 511.275C1740.05 511.275 1753.23 508.02 1762.84 501.51C1772.6 494.837 1779.52 485.885 1783.59 474.654C1787.82 463.424 1789.94 450.81 1789.94 436.812ZM1960.1 340.133V554H1901.26V289.84H1957.42L1960.1 340.133ZM2040.91 288.131L2040.42 342.818C2036.84 342.167 2032.94 341.679 2028.71 341.354C2024.64 341.028 2020.57 340.865 2016.5 340.865C2006.41 340.865 1997.54 342.33 1989.89 345.26C1982.24 348.027 1975.81 352.096 1970.6 357.467C1965.55 362.675 1961.65 369.023 1958.88 376.51C1956.11 383.997 1954.49 392.379 1954 401.656L1940.57 402.633C1940.57 386.031 1942.2 370.65 1945.45 356.49C1948.71 342.33 1953.59 329.879 1960.1 319.137C1966.77 308.395 1975.08 300.012 1985 293.99C1995.1 287.968 2006.73 284.957 2019.92 284.957C2023.5 284.957 2027.32 285.283 2031.39 285.934C2035.62 286.585 2038.8 287.317 2040.91 288.131ZM2180.8 512.008C2190.41 512.008 2199.03 510.136 2206.68 506.393C2214.5 502.486 2220.76 497.115 2225.48 490.279C2230.37 483.443 2233.05 475.549 2233.54 466.598H2288.96C2288.63 483.688 2283.59 499.231 2273.82 513.229C2264.06 527.226 2251.12 538.375 2235 546.676C2218.89 554.814 2201.07 558.883 2181.54 558.883C2161.35 558.883 2143.78 555.465 2128.8 548.629C2113.83 541.63 2101.38 532.027 2091.45 519.82C2081.52 507.613 2074.03 493.535 2068.99 477.584C2064.11 461.633 2061.66 444.544 2061.66 426.314V417.77C2061.66 399.54 2064.11 382.451 2068.99 366.5C2074.03 350.387 2081.52 336.227 2091.45 324.02C2101.38 311.812 2113.83 302.291 2128.8 295.455C2143.78 288.456 2161.27 284.957 2181.29 284.957C2202.45 284.957 2221.01 289.189 2236.96 297.652C2252.91 305.953 2265.44 317.59 2274.55 332.564C2283.83 347.376 2288.63 364.628 2288.96 384.322H2233.54C2233.05 374.557 2230.61 365.768 2226.21 357.955C2221.98 349.98 2215.96 343.632 2208.15 338.912C2200.5 334.192 2191.3 331.832 2180.56 331.832C2168.68 331.832 2158.83 334.273 2151.02 339.156C2143.21 343.876 2137.1 350.387 2132.71 358.688C2128.31 366.826 2125.14 376.021 2123.19 386.275C2121.4 396.367 2120.5 406.865 2120.5 417.77V426.314C2120.5 437.219 2121.4 447.799 2123.19 458.053C2124.98 468.307 2128.07 477.503 2132.46 485.641C2137.02 493.616 2143.21 500.045 2151.02 504.928C2158.83 509.648 2168.76 512.008 2180.8 512.008ZM2450.58 558.883C2431.05 558.883 2413.39 555.709 2397.6 549.361C2381.98 542.851 2368.63 533.818 2357.56 522.262C2346.66 510.706 2338.28 497.115 2332.42 481.49C2326.56 465.865 2323.63 449.02 2323.63 430.953V421.188C2323.63 400.517 2326.64 381.799 2332.66 365.035C2338.68 348.271 2347.06 333.948 2357.81 322.066C2368.55 310.022 2381.24 300.826 2395.89 294.479C2410.54 288.131 2426.41 284.957 2443.5 284.957C2462.38 284.957 2478.9 288.131 2493.06 294.479C2507.22 300.826 2518.94 309.778 2528.22 321.334C2537.66 332.727 2544.66 346.318 2549.21 362.105C2553.93 377.893 2556.29 395.309 2556.29 414.352V439.498H2352.19V397.262H2498.19V392.623C2497.86 382.044 2495.75 372.115 2491.84 362.838C2488.1 353.561 2482.32 346.074 2474.51 340.377C2466.69 334.68 2456.28 331.832 2443.26 331.832C2433.49 331.832 2424.78 333.948 2417.13 338.18C2409.65 342.249 2403.38 348.189 2398.33 356.002C2393.29 363.814 2389.38 373.255 2386.62 384.322C2384.01 395.227 2382.71 407.516 2382.71 421.188V430.953C2382.71 442.509 2384.26 453.251 2387.35 463.18C2390.6 472.945 2395.32 481.49 2401.51 488.814C2407.69 496.139 2415.18 501.917 2423.97 506.148C2432.76 510.217 2442.77 512.252 2454 512.252C2468.16 512.252 2480.77 509.404 2491.84 503.707C2502.91 498.01 2512.51 489.954 2520.65 479.537L2551.65 509.566C2545.96 517.867 2538.55 525.842 2529.44 533.492C2520.32 540.979 2509.17 547.083 2495.99 551.803C2482.97 556.523 2467.83 558.883 2450.58 558.883ZM2750.38 482.467C2750.38 476.607 2748.92 471.318 2745.99 466.598C2743.06 461.715 2737.45 457.32 2729.14 453.414C2721.01 449.508 2708.96 445.927 2693.01 442.672C2679.01 439.579 2666.16 435.917 2654.44 431.686C2642.88 427.291 2632.95 422.001 2624.65 415.816C2616.35 409.632 2609.92 402.307 2605.37 393.844C2600.81 385.38 2598.53 375.615 2598.53 364.547C2598.53 353.805 2600.89 343.632 2605.61 334.029C2610.33 324.426 2617.08 315.963 2625.87 308.639C2634.66 301.314 2645.32 295.536 2657.86 291.305C2670.55 287.073 2684.71 284.957 2700.34 284.957C2722.47 284.957 2741.43 288.701 2757.22 296.188C2773.17 303.512 2785.38 313.521 2793.84 326.217C2802.31 338.749 2806.54 352.91 2806.54 368.697H2747.7C2747.7 361.699 2745.91 355.188 2742.33 349.166C2738.91 342.981 2733.7 338.017 2726.7 334.273C2719.7 330.367 2710.92 328.414 2700.34 328.414C2690.24 328.414 2681.86 330.042 2675.19 333.297C2668.68 336.389 2663.8 340.458 2660.54 345.504C2657.45 350.549 2655.9 356.083 2655.9 362.105C2655.9 366.5 2656.72 370.488 2658.34 374.068C2660.13 377.486 2663.06 380.66 2667.13 383.59C2671.2 386.357 2676.74 388.961 2683.73 391.402C2690.9 393.844 2699.85 396.204 2710.59 398.482C2730.77 402.714 2748.11 408.167 2762.59 414.84C2777.24 421.35 2788.47 429.814 2796.28 440.23C2804.1 450.484 2808 463.505 2808 479.293C2808 491.012 2805.48 501.754 2800.43 511.52C2795.55 521.122 2788.39 529.505 2778.95 536.666C2769.51 543.665 2758.2 549.117 2745.01 553.023C2731.99 556.93 2717.34 558.883 2701.07 558.883C2677.14 558.883 2656.88 554.651 2640.28 546.188C2623.68 537.561 2611.06 526.575 2602.44 513.229C2593.97 499.719 2589.74 485.722 2589.74 471.236H2646.62C2647.28 482.141 2650.29 490.849 2655.66 497.359C2661.19 503.707 2668.03 508.346 2676.17 511.275C2684.47 514.042 2693.01 515.426 2701.8 515.426C2712.38 515.426 2721.25 514.042 2728.41 511.275C2735.57 508.346 2741.03 504.439 2744.77 499.557C2748.51 494.511 2750.38 488.814 2750.38 482.467ZM3224.75 346.969V395.553H3036.03V346.969H3224.75ZM3051.17 198.531V554H2989.89V198.531H3051.17ZM3271.87 198.531V554H3210.83V198.531H3271.87ZM3497.94 491.744V289.84H3557.03V554H3501.36L3497.94 491.744ZM3506.24 436.812L3526.02 436.324C3526.02 454.065 3524.07 470.423 3520.16 485.396C3516.25 500.208 3510.23 513.147 3502.09 524.215C3493.96 535.12 3483.54 543.665 3470.84 549.85C3458.15 555.872 3442.93 558.883 3425.19 558.883C3412.33 558.883 3400.53 557.011 3389.79 553.268C3379.05 549.524 3369.77 543.746 3361.96 535.934C3354.31 528.121 3348.37 517.949 3344.13 505.416C3339.9 492.883 3337.79 477.91 3337.79 460.494V289.84H3396.62V460.982C3396.62 470.585 3397.76 478.642 3400.04 485.152C3402.32 491.5 3405.41 496.627 3409.32 500.533C3413.23 504.439 3417.78 507.206 3422.99 508.834C3428.2 510.462 3433.73 511.275 3439.59 511.275C3456.36 511.275 3469.54 508.02 3479.14 501.51C3488.91 494.837 3495.83 485.885 3499.9 474.654C3504.13 463.424 3506.24 450.81 3506.24 436.812ZM3786.52 289.84H3839.98V546.676C3839.98 570.439 3834.94 590.621 3824.85 607.223C3814.76 623.824 3800.68 636.438 3782.61 645.064C3764.54 653.854 3743.63 658.248 3719.87 658.248C3709.78 658.248 3698.55 656.783 3686.18 653.854C3673.97 650.924 3662.09 646.204 3650.53 639.693C3639.14 633.346 3629.62 624.964 3621.97 614.547L3649.55 579.879C3658.99 591.109 3669.41 599.329 3680.8 604.537C3692.2 609.745 3704.16 612.35 3716.69 612.35C3730.2 612.35 3741.68 609.827 3751.12 604.781C3760.72 599.898 3768.13 592.656 3773.33 583.053C3778.54 573.45 3781.15 561.731 3781.15 547.896V349.654L3786.52 289.84ZM3607.07 424.85V419.723C3607.07 399.703 3609.52 381.474 3614.4 365.035C3619.28 348.434 3626.28 334.192 3635.39 322.311C3644.51 310.266 3655.58 301.07 3668.6 294.723C3681.62 288.212 3696.35 284.957 3712.79 284.957C3729.88 284.957 3744.44 288.049 3756.49 294.234C3768.7 300.419 3778.87 309.29 3787.01 320.846C3795.14 332.239 3801.49 345.911 3806.05 361.861C3810.77 377.649 3814.27 395.227 3816.55 414.596V430.953C3814.43 449.833 3810.85 467.086 3805.8 482.711C3800.76 498.336 3794.09 511.845 3785.79 523.238C3777.48 534.632 3767.23 543.421 3755.02 549.605C3742.98 555.79 3728.74 558.883 3712.3 558.883C3696.19 558.883 3681.62 555.546 3668.6 548.873C3655.74 542.2 3644.67 532.841 3635.39 520.797C3626.28 508.753 3619.28 494.592 3614.4 478.316C3609.52 461.878 3607.07 444.055 3607.07 424.85ZM3665.91 419.723V424.85C3665.91 436.894 3667.05 448.124 3669.33 458.541C3671.77 468.958 3675.43 478.154 3680.32 486.129C3685.36 493.941 3691.71 500.126 3699.36 504.684C3707.17 509.078 3716.37 511.275 3726.95 511.275C3740.78 511.275 3752.09 508.346 3760.88 502.486C3769.83 496.627 3776.67 488.733 3781.39 478.805C3786.27 468.714 3789.69 457.483 3791.64 445.113V400.924C3790.67 391.321 3788.63 382.369 3785.54 374.068C3782.61 365.768 3778.62 358.525 3773.58 352.34C3768.53 345.992 3762.18 341.109 3754.54 337.691C3746.89 334.111 3737.85 332.32 3727.44 332.32C3716.86 332.32 3707.66 334.599 3699.85 339.156C3692.04 343.714 3685.61 349.98 3680.56 357.955C3675.68 365.93 3672.02 375.208 3669.57 385.787C3667.13 396.367 3665.91 407.678 3665.91 419.723ZM3889.79 424.85V419.234C3889.79 400.191 3892.56 382.532 3898.09 366.256C3903.62 349.817 3911.6 335.576 3922.02 323.531C3932.6 311.324 3945.45 301.884 3960.59 295.211C3975.89 288.375 3993.14 284.957 4012.35 284.957C4031.72 284.957 4048.97 288.375 4064.11 295.211C4079.4 301.884 4092.34 311.324 4102.92 323.531C4113.5 335.576 4121.56 349.817 4127.09 366.256C4132.63 382.532 4135.39 400.191 4135.39 419.234V424.85C4135.39 443.893 4132.63 461.552 4127.09 477.828C4121.56 494.104 4113.5 508.346 4102.92 520.553C4092.34 532.597 4079.49 542.037 4064.35 548.873C4049.21 555.546 4032.04 558.883 4012.84 558.883C3993.47 558.883 3976.13 555.546 3960.83 548.873C3945.7 542.037 3932.84 532.597 3922.26 520.553C3911.68 508.346 3903.62 494.104 3898.09 477.828C3892.56 461.552 3889.79 443.893 3889.79 424.85ZM3948.63 419.234V424.85C3948.63 436.731 3949.85 447.962 3952.29 458.541C3954.73 469.12 3958.56 478.398 3963.76 486.373C3968.97 494.348 3975.65 500.615 3983.78 505.172C3991.92 509.729 4001.61 512.008 4012.84 512.008C4023.74 512.008 4033.18 509.729 4041.16 505.172C4049.29 500.615 4055.97 494.348 4061.18 486.373C4066.38 478.398 4070.21 469.12 4072.65 458.541C4075.25 447.962 4076.56 436.731 4076.56 424.85V419.234C4076.56 407.516 4075.25 396.448 4072.65 386.031C4070.21 375.452 4066.3 366.093 4060.93 357.955C4055.72 349.817 4049.05 343.469 4040.91 338.912C4032.94 334.192 4023.42 331.832 4012.35 331.832C4001.28 331.832 3991.68 334.192 3983.54 338.912C3975.56 343.469 3968.97 349.817 3963.76 357.955C3958.56 366.093 3954.73 375.452 3952.29 386.031C3949.85 396.448 3948.63 407.516 3948.63 419.234ZM4418.35 554H4342.43L4342.91 505.416H4418.35C4440.33 505.416 4458.72 500.615 4473.53 491.012C4488.5 481.409 4499.73 467.656 4507.22 449.752C4514.87 431.848 4518.7 410.527 4518.7 385.787V366.5C4518.7 347.294 4516.5 330.286 4512.1 315.475C4507.87 300.663 4501.52 288.212 4493.06 278.121C4484.76 268.03 4474.51 260.38 4462.3 255.172C4450.25 249.964 4436.34 247.359 4420.55 247.359H4340.96V198.531H4420.55C4444.15 198.531 4465.72 202.519 4485.25 210.494C4504.78 218.307 4521.62 229.618 4535.79 244.43C4550.11 259.241 4561.09 276.982 4568.74 297.652C4576.39 318.323 4580.22 341.435 4580.22 366.988V385.787C4580.22 411.34 4576.39 434.452 4568.74 455.123C4561.09 475.794 4550.11 493.535 4535.79 508.346C4521.46 522.994 4504.37 534.306 4484.52 542.281C4464.82 550.094 4442.77 554 4418.35 554ZM4376.36 198.531V554H4315.08V198.531H4376.36ZM4752.34 558.883C4732.81 558.883 4715.15 555.709 4699.36 549.361C4683.73 542.851 4670.39 533.818 4659.32 522.262C4648.42 510.706 4640.03 497.115 4634.17 481.49C4628.31 465.865 4625.38 449.02 4625.38 430.953V421.188C4625.38 400.517 4628.4 381.799 4634.42 365.035C4640.44 348.271 4648.82 333.948 4659.56 322.066C4670.31 310.022 4683 300.826 4697.65 294.479C4712.3 288.131 4728.17 284.957 4745.26 284.957C4764.14 284.957 4780.66 288.131 4794.82 294.479C4808.98 300.826 4820.7 309.778 4829.97 321.334C4839.41 332.727 4846.41 346.318 4850.97 362.105C4855.69 377.893 4858.05 395.309 4858.05 414.352V439.498H4653.95V397.262H4799.95V392.623C4799.62 382.044 4797.5 372.115 4793.6 362.838C4789.85 353.561 4784.08 346.074 4776.26 340.377C4768.45 334.68 4758.03 331.832 4745.01 331.832C4735.25 331.832 4726.54 333.948 4718.89 338.18C4711.4 342.249 4705.14 348.189 4700.09 356.002C4695.05 363.814 4691.14 373.255 4688.37 384.322C4685.77 395.227 4684.47 407.516 4684.47 421.188V430.953C4684.47 442.509 4686.01 453.251 4689.11 463.18C4692.36 472.945 4697.08 481.49 4703.27 488.814C4709.45 496.139 4716.94 501.917 4725.73 506.148C4734.52 510.217 4744.53 512.252 4755.76 512.252C4769.92 512.252 4782.53 509.404 4793.6 503.707C4804.67 498.01 4814.27 489.954 4822.41 479.537L4853.41 509.566C4847.72 517.867 4840.31 525.842 4831.2 533.492C4822.08 540.979 4810.93 547.083 4797.75 551.803C4784.73 556.523 4769.59 558.883 4752.34 558.883ZM4711.32 252.486L4758.93 179H4825.34L4758.93 252.486H4711.32ZM5011.86 512.008C5021.46 512.008 5030.09 510.136 5037.74 506.393C5045.55 502.486 5051.82 497.115 5056.54 490.279C5061.42 483.443 5064.11 475.549 5064.59 466.598H5120.01C5119.69 483.688 5114.64 499.231 5104.88 513.229C5095.11 527.226 5082.17 538.375 5066.06 546.676C5049.95 554.814 5032.12 558.883 5012.59 558.883C4992.41 558.883 4974.83 555.465 4959.86 548.629C4944.88 541.63 4932.43 532.027 4922.5 519.82C4912.58 507.613 4905.09 493.535 4900.04 477.584C4895.16 461.633 4892.72 444.544 4892.72 426.314V417.77C4892.72 399.54 4895.16 382.451 4900.04 366.5C4905.09 350.387 4912.58 336.227 4922.5 324.02C4932.43 311.812 4944.88 302.291 4959.86 295.455C4974.83 288.456 4992.33 284.957 5012.35 284.957C5033.51 284.957 5052.06 289.189 5068.01 297.652C5083.96 305.953 5096.49 317.59 5105.61 332.564C5114.89 347.376 5119.69 364.628 5120.01 384.322H5064.59C5064.11 374.557 5061.66 365.768 5057.27 357.955C5053.04 349.98 5047.02 343.632 5039.2 338.912C5031.55 334.192 5022.36 331.832 5011.62 331.832C4999.73 331.832 4989.89 334.273 4982.07 339.156C4974.26 343.876 4968.16 350.387 4963.76 358.688C4959.37 366.826 4956.2 376.021 4954.24 386.275C4952.45 396.367 4951.56 406.865 4951.56 417.77V426.314C4951.56 437.219 4952.45 447.799 4954.24 458.053C4956.03 468.307 4959.12 477.503 4963.52 485.641C4968.08 493.616 4974.26 500.045 4982.07 504.928C4989.89 509.648 4999.82 512.008 5011.86 512.008ZM5224.26 340.133V554H5165.42V289.84H5221.58L5224.26 340.133ZM5305.07 288.131L5304.58 342.818C5301 342.167 5297.1 341.679 5292.87 341.354C5288.8 341.028 5284.73 340.865 5280.66 340.865C5270.57 340.865 5261.7 342.33 5254.05 345.26C5246.4 348.027 5239.97 352.096 5234.76 357.467C5229.71 362.675 5225.81 369.023 5223.04 376.51C5220.27 383.997 5218.65 392.379 5218.16 401.656L5204.73 402.633C5204.73 386.031 5206.36 370.65 5209.61 356.49C5212.87 342.33 5217.75 329.879 5224.26 319.137C5230.93 308.395 5239.24 300.012 5249.16 293.99C5259.26 287.968 5270.89 284.957 5284.08 284.957C5287.66 284.957 5291.48 285.283 5295.55 285.934C5299.78 286.585 5302.96 287.317 5305.07 288.131ZM5422.99 525.191L5494.77 289.84H5557.76L5451.8 594.283C5449.36 600.794 5446.19 607.874 5442.28 615.523C5438.37 623.173 5433.25 630.416 5426.9 637.252C5420.71 644.251 5412.98 649.866 5403.71 654.098C5394.43 658.492 5383.2 660.689 5370.01 660.689C5364.81 660.689 5359.76 660.201 5354.88 659.225C5350.16 658.411 5345.68 657.516 5341.45 656.539L5341.21 611.617C5342.83 611.78 5344.79 611.943 5347.06 612.105C5349.51 612.268 5351.46 612.35 5352.92 612.35C5362.69 612.35 5370.83 611.129 5377.34 608.688C5383.85 606.409 5389.14 602.665 5393.21 597.457C5397.44 592.249 5401.02 585.25 5403.95 576.461L5422.99 525.191ZM5382.46 289.84L5445.21 487.594L5455.71 549.605L5414.94 560.104L5318.99 289.84H5382.46ZM5650.53 340.621V655.562H5591.69V289.84H5645.89L5650.53 340.621ZM5822.65 419.479V424.605C5822.65 443.811 5820.37 461.633 5815.81 478.072C5811.42 494.348 5804.83 508.59 5796.04 520.797C5787.41 532.841 5776.75 542.2 5764.06 548.873C5751.36 555.546 5736.71 558.883 5720.11 558.883C5703.67 558.883 5689.27 555.872 5676.9 549.85C5664.69 543.665 5654.36 534.957 5645.89 523.727C5637.43 512.496 5630.59 499.312 5625.38 484.176C5620.34 468.876 5616.76 452.112 5614.64 433.883V414.107C5616.76 394.739 5620.34 377.161 5625.38 361.373C5630.59 345.585 5637.43 331.995 5645.89 320.602C5654.36 309.208 5664.69 300.419 5676.9 294.234C5689.11 288.049 5703.35 284.957 5719.62 284.957C5736.22 284.957 5750.95 288.212 5763.81 294.723C5776.67 301.07 5787.49 310.185 5796.28 322.066C5805.07 333.785 5811.66 347.945 5816.06 364.547C5820.45 380.986 5822.65 399.296 5822.65 419.479ZM5763.81 424.605V419.479C5763.81 407.271 5762.67 395.96 5760.39 385.543C5758.12 374.964 5754.54 365.686 5749.65 357.711C5744.77 349.736 5738.5 343.551 5730.85 339.156C5723.37 334.599 5714.33 332.32 5703.75 332.32C5693.34 332.32 5684.39 334.111 5676.9 337.691C5669.41 341.109 5663.15 345.911 5658.1 352.096C5653.05 358.281 5649.15 365.523 5646.38 373.824C5643.61 381.962 5641.66 390.833 5640.52 400.436V447.799C5642.47 459.518 5645.81 470.26 5650.53 480.025C5655.25 489.791 5661.92 497.604 5670.55 503.463C5679.34 509.16 5690.57 512.008 5704.24 512.008C5714.82 512.008 5723.85 509.729 5731.34 505.172C5738.83 500.615 5744.93 494.348 5749.65 486.373C5754.54 478.235 5758.12 468.876 5760.39 458.297C5762.67 447.717 5763.81 436.487 5763.81 424.605ZM5993.79 289.84V332.809H5844.87V289.84H5993.79ZM5887.84 225.143H5946.67V481.002C5946.67 489.14 5947.81 495.406 5950.09 499.801C5952.53 504.033 5955.87 506.881 5960.1 508.346C5964.33 509.811 5969.3 510.543 5974.99 510.543C5979.06 510.543 5982.97 510.299 5986.71 509.811C5990.46 509.322 5993.47 508.834 5995.75 508.346L5995.99 553.268C5991.11 554.732 5985.41 556.035 5978.9 557.174C5972.55 558.313 5965.23 558.883 5956.93 558.883C5943.42 558.883 5931.46 556.523 5921.04 551.803C5910.62 546.92 5902.48 539.026 5896.62 528.121C5890.77 517.216 5887.84 502.73 5887.84 484.664V225.143ZM6155.66 558.883C6136.13 558.883 6118.47 555.709 6102.68 549.361C6087.05 542.851 6073.71 533.818 6062.64 522.262C6051.74 510.706 6043.35 497.115 6037.49 481.49C6031.63 465.865 6028.71 449.02 6028.71 430.953V421.188C6028.71 400.517 6031.72 381.799 6037.74 365.035C6043.76 348.271 6052.14 333.948 6062.88 322.066C6073.63 310.022 6086.32 300.826 6100.97 294.479C6115.62 288.131 6131.49 284.957 6148.58 284.957C6167.46 284.957 6183.98 288.131 6198.14 294.479C6212.3 300.826 6224.02 309.778 6233.29 321.334C6242.74 332.727 6249.73 346.318 6254.29 362.105C6259.01 377.893 6261.37 395.309 6261.37 414.352V439.498H6057.27V397.262H6203.27V392.623C6202.94 382.044 6200.82 372.115 6196.92 362.838C6193.17 353.561 6187.4 346.074 6179.58 340.377C6171.77 334.68 6161.35 331.832 6148.33 331.832C6138.57 331.832 6129.86 333.948 6122.21 338.18C6114.72 342.249 6108.46 348.189 6103.41 356.002C6098.37 363.814 6094.46 373.255 6091.69 384.322C6089.09 395.227 6087.79 407.516 6087.79 421.188V430.953C6087.79 442.509 6089.33 453.251 6092.43 463.18C6095.68 472.945 6100.4 481.49 6106.59 488.814C6112.77 496.139 6120.26 501.917 6129.05 506.148C6137.84 510.217 6147.85 512.252 6159.08 512.252C6173.24 512.252 6185.85 509.404 6196.92 503.707C6207.99 498.01 6217.59 489.954 6225.73 479.537L6256.73 509.566C6251.04 517.867 6243.63 525.842 6234.52 533.492C6225.4 540.979 6214.25 547.083 6201.07 551.803C6188.05 556.523 6172.91 558.883 6155.66 558.883Z" fill="black"/>
<defs>
<linearGradient id="paint0_linear_102_20" x1="604.094" y1="474.619" x2="599.196" y2="589.534" gradientUnits="userSpaceOnUse">
<stop stop-color="#182EF7"/>
<stop offset="1" stop-color="#FB4DA0"/>
</linearGradient>
<linearGradient id="paint1_linear_102_20" x1="639.403" y1="0" x2="0" y2="639.403" gradientUnits="userSpaceOnUse">
<stop stop-color="#182EF7"/>
<stop offset="0.314017" stop-color="#4634E5"/>
<stop offset="0.664081" stop-color="#D648AE"/>
<stop offset="0.979167" stop-color="#FB4DA0"/>
</linearGradient>
<linearGradient id="paint2_linear_102_20" x1="744.823" y1="513.654" x2="744.823" y2="652.191" gradientUnits="userSpaceOnUse">
<stop stop-color="#182EF7"/>
<stop offset="0.979167" stop-color="#FB4DA0"/>
</linearGradient>
<linearGradient id="paint3_linear_102_20" x1="506" y1="-2.49995" x2="-34" y2="454.5" gradientUnits="userSpaceOnUse">
<stop stop-color="#182EF7"/>
<stop offset="1" stop-color="#FB4DA0"/>
</linearGradient>
<linearGradient id="paint4_linear_102_20" x1="640.5" y1="122.5" x2="82.5" y2="608" gradientUnits="userSpaceOnUse">
<stop stop-color="#182EF4"/>
<stop offset="1" stop-color="#FB4DA0"/>
</linearGradient>
</defs>
</svg>
