<svg width="6671" height="800" viewBox="0 0 6671 800" fill="none" xmlns="http://www.w3.org/2000/svg">
<rect x="549.275" y="504.062" width="127.88" height="63.9403" transform="rotate(45 549.275 504.062)" fill="url(#paint0_linear_11_31)"/>
<rect x="549.275" y="504.062" width="127.88" height="63.9403" transform="rotate(45 549.275 504.062)" stroke="black"/>
<path fill-rule="evenodd" clip-rule="evenodd" d="M319.701 639.403C496.268 639.403 639.403 496.268 639.403 319.701C639.403 143.135 496.268 0 319.701 0C143.135 0 0 143.135 0 319.701C0 496.268 143.135 639.403 319.701 639.403ZM319.701 548.821C446.24 548.821 548.821 446.24 548.821 319.701C548.821 193.162 446.24 90.5821 319.701 90.5821C193.162 90.5821 90.5821 193.162 90.5821 319.701C90.5821 446.24 193.162 548.821 319.701 548.821Z" fill="url(#paint1_linear_11_31)"/>
<rect x="611.614" y="513.654" width="266.418" height="138.537" rx="50" transform="rotate(45 611.614 513.654)" fill="url(#paint2_linear_11_31)"/>
<path d="M403.623 174.345C408.773 165.425 405.747 153.925 396.358 149.692C379.771 142.213 362.149 137.188 344.044 134.804C319.762 131.608 295.09 133.225 271.434 139.563C247.778 145.902 225.602 156.838 206.172 171.747C191.684 182.864 178.935 196.027 168.31 210.797C162.296 219.158 165.425 230.63 174.345 235.78V235.78C183.265 240.93 194.582 237.786 200.804 229.578C208.841 218.974 218.278 209.471 228.878 201.338C244.422 189.411 262.162 180.662 281.087 175.591C300.012 170.52 319.75 169.226 339.175 171.784C352.422 173.528 365.346 177.039 377.608 182.203C387.1 186.201 398.473 183.265 403.623 174.345V174.345Z" fill="#F1F1F1"/>
<path d="M486.644 337.065C496.888 338.13 506.155 330.679 506.193 320.379C506.271 298.734 502.581 277.191 495.24 256.728C487.899 236.265 477.053 217.289 463.233 200.629C456.657 192.702 444.767 192.841 437.536 200.176V200.176C430.305 207.51 430.496 219.255 436.872 227.344C446.815 239.958 454.681 254.128 460.132 269.322C465.583 284.517 468.518 300.456 468.861 316.514C469.081 326.811 476.4 335.999 486.644 337.065V337.065Z" fill="#F1F1F1"/>
<rect x="621.514" y="560.543" width="159.851" height="31.9701" rx="15.9851" transform="rotate(45 621.514 560.543)" fill="white"/>
<path d="M1269.14 448.447C1269.14 441.123 1268.01 434.613 1265.73 428.916C1263.61 423.219 1259.79 418.011 1254.25 413.291C1248.72 408.571 1240.91 404.014 1230.81 399.619C1220.89 395.062 1208.19 390.423 1192.73 385.703C1175.8 380.495 1160.18 374.717 1145.85 368.369C1131.69 361.859 1119.32 354.372 1108.74 345.908C1098.16 337.282 1089.95 327.435 1084.09 316.367C1078.23 305.137 1075.3 292.197 1075.3 277.549C1075.3 263.063 1078.31 249.88 1084.33 237.998C1090.51 226.117 1099.22 215.863 1110.45 207.236C1121.85 198.447 1135.27 191.693 1150.74 186.973C1166.2 182.09 1183.29 179.648 1202.01 179.648C1228.37 179.648 1251.08 184.531 1270.12 194.297C1289.33 204.062 1304.06 217.165 1314.31 233.604C1324.73 250.042 1329.94 268.19 1329.94 288.047H1269.14C1269.14 276.328 1266.62 265.993 1261.58 257.041C1256.69 247.926 1249.21 240.765 1239.12 235.557C1229.19 230.348 1216.57 227.744 1201.27 227.744C1186.79 227.744 1174.74 229.941 1165.14 234.336C1155.54 238.73 1148.38 244.671 1143.66 252.158C1138.94 259.645 1136.58 268.109 1136.58 277.549C1136.58 284.222 1138.12 290.326 1141.21 295.859C1144.31 301.23 1149.03 306.276 1155.38 310.996C1161.72 315.553 1169.7 319.867 1179.3 323.936C1188.9 328.005 1200.22 331.911 1213.24 335.654C1232.93 341.514 1250.1 348.024 1264.75 355.186C1279.4 362.184 1291.61 370.16 1301.37 379.111C1311.14 388.063 1318.46 398.236 1323.34 409.629C1328.23 420.859 1330.67 433.636 1330.67 447.959C1330.67 462.933 1327.66 476.442 1321.63 488.486C1315.61 500.368 1306.99 510.54 1295.76 519.004C1284.69 527.305 1271.34 533.734 1255.72 538.291C1240.25 542.686 1223 544.883 1203.96 544.883C1186.87 544.883 1170.02 542.604 1153.42 538.047C1136.98 533.49 1122.01 526.572 1108.5 517.295C1094.99 507.855 1084.25 496.136 1076.27 482.139C1068.3 467.979 1064.31 451.458 1064.31 432.578H1125.59C1125.59 444.134 1127.54 453.981 1131.45 462.119C1135.52 470.257 1141.13 476.93 1148.29 482.139C1155.46 487.184 1163.76 490.928 1173.2 493.369C1182.8 495.811 1193.05 497.031 1203.96 497.031C1218.28 497.031 1230.24 494.997 1239.85 490.928C1249.61 486.859 1256.94 481.162 1261.82 473.838C1266.7 466.514 1269.14 458.05 1269.14 448.447ZM1367.78 410.85V405.234C1367.78 386.191 1370.54 368.532 1376.08 352.256C1381.61 335.817 1389.59 321.576 1400 309.531C1410.58 297.324 1423.44 287.884 1438.58 281.211C1453.88 274.375 1471.13 270.957 1490.34 270.957C1509.7 270.957 1526.96 274.375 1542.09 281.211C1557.39 287.884 1570.33 297.324 1580.91 309.531C1591.49 321.576 1599.55 335.817 1605.08 352.256C1610.62 368.532 1613.38 386.191 1613.38 405.234V410.85C1613.38 429.893 1610.62 447.552 1605.08 463.828C1599.55 480.104 1591.49 494.346 1580.91 506.553C1570.33 518.597 1557.47 528.037 1542.34 534.873C1527.2 541.546 1510.03 544.883 1490.82 544.883C1471.46 544.883 1454.12 541.546 1438.82 534.873C1423.69 528.037 1410.83 518.597 1400.25 506.553C1389.67 494.346 1381.61 480.104 1376.08 463.828C1370.54 447.552 1367.78 429.893 1367.78 410.85ZM1426.62 405.234V410.85C1426.62 422.731 1427.84 433.962 1430.28 444.541C1432.72 455.12 1436.54 464.398 1441.75 472.373C1446.96 480.348 1453.63 486.615 1461.77 491.172C1469.91 495.729 1479.59 498.008 1490.82 498.008C1501.73 498.008 1511.17 495.729 1519.14 491.172C1527.28 486.615 1533.96 480.348 1539.16 472.373C1544.37 464.398 1548.2 455.12 1550.64 444.541C1553.24 433.962 1554.54 422.731 1554.54 410.85V405.234C1554.54 393.516 1553.24 382.448 1550.64 372.031C1548.2 361.452 1544.29 352.093 1538.92 343.955C1533.71 335.817 1527.04 329.469 1518.9 324.912C1510.93 320.192 1501.4 317.832 1490.34 317.832C1479.27 317.832 1469.67 320.192 1461.53 324.912C1453.55 329.469 1446.96 335.817 1441.75 343.955C1436.54 352.093 1432.72 361.452 1430.28 372.031C1427.84 382.448 1426.62 393.516 1426.62 405.234ZM1821.63 477.744V275.84H1880.72V540H1825.05L1821.63 477.744ZM1829.94 422.812L1849.71 422.324C1849.71 440.065 1847.76 456.423 1843.85 471.396C1839.95 486.208 1833.92 499.147 1825.79 510.215C1817.65 521.12 1807.23 529.665 1794.54 535.85C1781.84 541.872 1766.62 544.883 1748.88 544.883C1736.02 544.883 1724.22 543.011 1713.48 539.268C1702.74 535.524 1693.46 529.746 1685.65 521.934C1678 514.121 1672.06 503.949 1667.83 491.416C1663.59 478.883 1661.48 463.91 1661.48 446.494V275.84H1720.32V446.982C1720.32 456.585 1721.46 464.642 1723.73 471.152C1726.01 477.5 1729.11 482.627 1733.01 486.533C1736.92 490.439 1741.48 493.206 1746.68 494.834C1751.89 496.462 1757.43 497.275 1763.29 497.275C1780.05 497.275 1793.23 494.02 1802.84 487.51C1812.6 480.837 1819.52 471.885 1823.59 460.654C1827.82 449.424 1829.94 436.81 1829.94 422.812ZM2000.1 326.133V540H1941.26V275.84H1997.42L2000.1 326.133ZM2080.91 274.131L2080.42 328.818C2076.84 328.167 2072.94 327.679 2068.71 327.354C2064.64 327.028 2060.57 326.865 2056.5 326.865C2046.41 326.865 2037.54 328.33 2029.89 331.26C2022.24 334.027 2015.81 338.096 2010.6 343.467C2005.55 348.675 2001.65 355.023 1998.88 362.51C1996.11 369.997 1994.49 378.379 1994 387.656L1980.57 388.633C1980.57 372.031 1982.2 356.65 1985.45 342.49C1988.71 328.33 1993.59 315.879 2000.1 305.137C2006.77 294.395 2015.08 286.012 2025 279.99C2035.1 273.968 2046.73 270.957 2059.92 270.957C2063.5 270.957 2067.32 271.283 2071.39 271.934C2075.62 272.585 2078.8 273.317 2080.91 274.131ZM2220.8 498.008C2230.41 498.008 2239.03 496.136 2246.68 492.393C2254.5 488.486 2260.76 483.115 2265.48 476.279C2270.37 469.443 2273.05 461.549 2273.54 452.598H2328.96C2328.63 469.688 2323.59 485.231 2313.82 499.229C2304.06 513.226 2291.12 524.375 2275 532.676C2258.89 540.814 2241.07 544.883 2221.54 544.883C2201.35 544.883 2183.78 541.465 2168.8 534.629C2153.83 527.63 2141.38 518.027 2131.45 505.82C2121.52 493.613 2114.03 479.535 2108.99 463.584C2104.11 447.633 2101.66 430.544 2101.66 412.314V403.77C2101.66 385.54 2104.11 368.451 2108.99 352.5C2114.03 336.387 2121.52 322.227 2131.45 310.02C2141.38 297.812 2153.83 288.291 2168.8 281.455C2183.78 274.456 2201.27 270.957 2221.29 270.957C2242.45 270.957 2261.01 275.189 2276.96 283.652C2292.91 291.953 2305.44 303.59 2314.55 318.564C2323.83 333.376 2328.63 350.628 2328.96 370.322H2273.54C2273.05 360.557 2270.61 351.768 2266.21 343.955C2261.98 335.98 2255.96 329.632 2248.15 324.912C2240.5 320.192 2231.3 317.832 2220.56 317.832C2208.68 317.832 2198.83 320.273 2191.02 325.156C2183.21 329.876 2177.1 336.387 2172.71 344.688C2168.31 352.826 2165.14 362.021 2163.19 372.275C2161.4 382.367 2160.5 392.865 2160.5 403.77V412.314C2160.5 423.219 2161.4 433.799 2163.19 444.053C2164.98 454.307 2168.07 463.503 2172.46 471.641C2177.02 479.616 2183.21 486.045 2191.02 490.928C2198.83 495.648 2208.76 498.008 2220.8 498.008ZM2490.58 544.883C2471.05 544.883 2453.39 541.709 2437.6 535.361C2421.98 528.851 2408.63 519.818 2397.56 508.262C2386.66 496.706 2378.28 483.115 2372.42 467.49C2366.56 451.865 2363.63 435.02 2363.63 416.953V407.188C2363.63 386.517 2366.64 367.799 2372.66 351.035C2378.68 334.271 2387.06 319.948 2397.81 308.066C2408.55 296.022 2421.24 286.826 2435.89 280.479C2450.54 274.131 2466.41 270.957 2483.5 270.957C2502.38 270.957 2518.9 274.131 2533.06 280.479C2547.22 286.826 2558.94 295.778 2568.22 307.334C2577.66 318.727 2584.66 332.318 2589.21 348.105C2593.93 363.893 2596.29 381.309 2596.29 400.352V425.498H2392.19V383.262H2538.19V378.623C2537.86 368.044 2535.75 358.115 2531.84 348.838C2528.1 339.561 2522.32 332.074 2514.51 326.377C2506.69 320.68 2496.28 317.832 2483.26 317.832C2473.49 317.832 2464.78 319.948 2457.13 324.18C2449.65 328.249 2443.38 334.189 2438.33 342.002C2433.29 349.814 2429.38 359.255 2426.62 370.322C2424.01 381.227 2422.71 393.516 2422.71 407.188V416.953C2422.71 428.509 2424.26 439.251 2427.35 449.18C2430.6 458.945 2435.32 467.49 2441.51 474.814C2447.69 482.139 2455.18 487.917 2463.97 492.148C2472.76 496.217 2482.77 498.252 2494 498.252C2508.16 498.252 2520.77 495.404 2531.84 489.707C2542.91 484.01 2552.51 475.954 2560.65 465.537L2591.65 495.566C2585.96 503.867 2578.55 511.842 2569.44 519.492C2560.32 526.979 2549.17 533.083 2535.99 537.803C2522.97 542.523 2507.83 544.883 2490.58 544.883ZM2790.38 468.467C2790.38 462.607 2788.92 457.318 2785.99 452.598C2783.06 447.715 2777.45 443.32 2769.14 439.414C2761.01 435.508 2748.96 431.927 2733.01 428.672C2719.01 425.579 2706.16 421.917 2694.44 417.686C2682.88 413.291 2672.95 408.001 2664.65 401.816C2656.35 395.632 2649.92 388.307 2645.37 379.844C2640.81 371.38 2638.53 361.615 2638.53 350.547C2638.53 339.805 2640.89 329.632 2645.61 320.029C2650.33 310.426 2657.08 301.963 2665.87 294.639C2674.66 287.314 2685.32 281.536 2697.86 277.305C2710.55 273.073 2724.71 270.957 2740.34 270.957C2762.47 270.957 2781.43 274.701 2797.22 282.188C2813.17 289.512 2825.38 299.521 2833.84 312.217C2842.31 324.749 2846.54 338.91 2846.54 354.697H2787.7C2787.7 347.699 2785.91 341.188 2782.33 335.166C2778.91 328.981 2773.7 324.017 2766.7 320.273C2759.7 316.367 2750.92 314.414 2740.34 314.414C2730.24 314.414 2721.86 316.042 2715.19 319.297C2708.68 322.389 2703.8 326.458 2700.54 331.504C2697.45 336.549 2695.9 342.083 2695.9 348.105C2695.9 352.5 2696.72 356.488 2698.34 360.068C2700.13 363.486 2703.06 366.66 2707.13 369.59C2711.2 372.357 2716.74 374.961 2723.73 377.402C2730.9 379.844 2739.85 382.204 2750.59 384.482C2770.77 388.714 2788.11 394.167 2802.59 400.84C2817.24 407.35 2828.47 415.814 2836.28 426.23C2844.1 436.484 2848 449.505 2848 465.293C2848 477.012 2845.48 487.754 2840.43 497.52C2835.55 507.122 2828.39 515.505 2818.95 522.666C2809.51 529.665 2798.2 535.117 2785.01 539.023C2771.99 542.93 2757.34 544.883 2741.07 544.883C2717.14 544.883 2696.88 540.651 2680.28 532.188C2663.68 523.561 2651.06 512.575 2642.44 499.229C2633.97 485.719 2629.74 471.722 2629.74 457.236H2686.62C2687.28 468.141 2690.29 476.849 2695.66 483.359C2701.19 489.707 2708.03 494.346 2716.17 497.275C2724.47 500.042 2733.01 501.426 2741.8 501.426C2752.38 501.426 2761.25 500.042 2768.41 497.275C2775.57 494.346 2781.03 490.439 2784.77 485.557C2788.51 480.511 2790.38 474.814 2790.38 468.467ZM3264.75 332.969V381.553H3076.03V332.969H3264.75ZM3091.17 184.531V540H3029.89V184.531H3091.17ZM3311.87 184.531V540H3250.83V184.531H3311.87ZM3537.94 477.744V275.84H3597.03V540H3541.36L3537.94 477.744ZM3546.24 422.812L3566.02 422.324C3566.02 440.065 3564.07 456.423 3560.16 471.396C3556.25 486.208 3550.23 499.147 3542.09 510.215C3533.96 521.12 3523.54 529.665 3510.84 535.85C3498.15 541.872 3482.93 544.883 3465.19 544.883C3452.33 544.883 3440.53 543.011 3429.79 539.268C3419.05 535.524 3409.77 529.746 3401.96 521.934C3394.31 514.121 3388.37 503.949 3384.13 491.416C3379.9 478.883 3377.79 463.91 3377.79 446.494V275.84H3436.62V446.982C3436.62 456.585 3437.76 464.642 3440.04 471.152C3442.32 477.5 3445.41 482.627 3449.32 486.533C3453.23 490.439 3457.78 493.206 3462.99 494.834C3468.2 496.462 3473.73 497.275 3479.59 497.275C3496.36 497.275 3509.54 494.02 3519.14 487.51C3528.91 480.837 3535.83 471.885 3539.9 460.654C3544.13 449.424 3546.24 436.81 3546.24 422.812ZM3826.52 275.84H3879.98V532.676C3879.98 556.439 3874.94 576.621 3864.85 593.223C3854.76 609.824 3840.68 622.438 3822.61 631.064C3804.54 639.854 3783.63 644.248 3759.87 644.248C3749.78 644.248 3738.55 642.783 3726.18 639.854C3713.97 636.924 3702.09 632.204 3690.53 625.693C3679.14 619.346 3669.62 610.964 3661.97 600.547L3689.55 565.879C3698.99 577.109 3709.41 585.329 3720.8 590.537C3732.2 595.745 3744.16 598.35 3756.69 598.35C3770.2 598.35 3781.68 595.827 3791.12 590.781C3800.72 585.898 3808.13 578.656 3813.33 569.053C3818.54 559.45 3821.15 547.731 3821.15 533.896V335.654L3826.52 275.84ZM3647.07 410.85V405.723C3647.07 385.703 3649.52 367.474 3654.4 351.035C3659.28 334.434 3666.28 320.192 3675.39 308.311C3684.51 296.266 3695.58 287.07 3708.6 280.723C3721.62 274.212 3736.35 270.957 3752.79 270.957C3769.88 270.957 3784.44 274.049 3796.49 280.234C3808.7 286.419 3818.87 295.29 3827.01 306.846C3835.14 318.239 3841.49 331.911 3846.05 347.861C3850.77 363.649 3854.27 381.227 3856.55 400.596V416.953C3854.43 435.833 3850.85 453.086 3845.8 468.711C3840.76 484.336 3834.09 497.845 3825.79 509.238C3817.48 520.632 3807.23 529.421 3795.02 535.605C3782.98 541.79 3768.74 544.883 3752.3 544.883C3736.19 544.883 3721.62 541.546 3708.6 534.873C3695.74 528.2 3684.67 518.841 3675.39 506.797C3666.28 494.753 3659.28 480.592 3654.4 464.316C3649.52 447.878 3647.07 430.055 3647.07 410.85ZM3705.91 405.723V410.85C3705.91 422.894 3707.05 434.124 3709.33 444.541C3711.77 454.958 3715.43 464.154 3720.32 472.129C3725.36 479.941 3731.71 486.126 3739.36 490.684C3747.17 495.078 3756.37 497.275 3766.95 497.275C3780.78 497.275 3792.09 494.346 3800.88 488.486C3809.83 482.627 3816.67 474.733 3821.39 464.805C3826.27 454.714 3829.69 443.483 3831.64 431.113V386.924C3830.67 377.321 3828.63 368.369 3825.54 360.068C3822.61 351.768 3818.62 344.525 3813.58 338.34C3808.53 331.992 3802.18 327.109 3794.54 323.691C3786.89 320.111 3777.85 318.32 3767.44 318.32C3756.86 318.32 3747.66 320.599 3739.85 325.156C3732.04 329.714 3725.61 335.98 3720.56 343.955C3715.68 351.93 3712.02 361.208 3709.57 371.787C3707.13 382.367 3705.91 393.678 3705.91 405.723ZM3929.79 410.85V405.234C3929.79 386.191 3932.56 368.532 3938.09 352.256C3943.62 335.817 3951.6 321.576 3962.02 309.531C3972.6 297.324 3985.45 287.884 4000.59 281.211C4015.89 274.375 4033.14 270.957 4052.35 270.957C4071.72 270.957 4088.97 274.375 4104.11 281.211C4119.4 287.884 4132.34 297.324 4142.92 309.531C4153.5 321.576 4161.56 335.817 4167.09 352.256C4172.63 368.532 4175.39 386.191 4175.39 405.234V410.85C4175.39 429.893 4172.63 447.552 4167.09 463.828C4161.56 480.104 4153.5 494.346 4142.92 506.553C4132.34 518.597 4119.49 528.037 4104.35 534.873C4089.21 541.546 4072.04 544.883 4052.84 544.883C4033.47 544.883 4016.13 541.546 4000.83 534.873C3985.7 528.037 3972.84 518.597 3962.26 506.553C3951.68 494.346 3943.62 480.104 3938.09 463.828C3932.56 447.552 3929.79 429.893 3929.79 410.85ZM3988.63 405.234V410.85C3988.63 422.731 3989.85 433.962 3992.29 444.541C3994.73 455.12 3998.56 464.398 4003.76 472.373C4008.97 480.348 4015.65 486.615 4023.78 491.172C4031.92 495.729 4041.61 498.008 4052.84 498.008C4063.74 498.008 4073.18 495.729 4081.16 491.172C4089.29 486.615 4095.97 480.348 4101.18 472.373C4106.38 464.398 4110.21 455.12 4112.65 444.541C4115.25 433.962 4116.56 422.731 4116.56 410.85V405.234C4116.56 393.516 4115.25 382.448 4112.65 372.031C4110.21 361.452 4106.3 352.093 4100.93 343.955C4095.72 335.817 4089.05 329.469 4080.91 324.912C4072.94 320.192 4063.42 317.832 4052.35 317.832C4041.28 317.832 4031.68 320.192 4023.54 324.912C4015.56 329.469 4008.97 335.817 4003.76 343.955C3998.56 352.093 3994.73 361.452 3992.29 372.031C3989.85 382.448 3988.63 393.516 3988.63 405.234ZM4458.35 540H4382.43L4382.91 491.416H4458.35C4480.33 491.416 4498.72 486.615 4513.53 477.012C4528.5 467.409 4539.73 453.656 4547.22 435.752C4554.87 417.848 4558.7 396.527 4558.7 371.787V352.5C4558.7 333.294 4556.5 316.286 4552.1 301.475C4547.87 286.663 4541.52 274.212 4533.06 264.121C4524.76 254.03 4514.51 246.38 4502.3 241.172C4490.25 235.964 4476.34 233.359 4460.55 233.359H4380.96V184.531H4460.55C4484.15 184.531 4505.72 188.519 4525.25 196.494C4544.78 204.307 4561.62 215.618 4575.79 230.43C4590.11 245.241 4601.09 262.982 4608.74 283.652C4616.39 304.323 4620.22 327.435 4620.22 352.988V371.787C4620.22 397.34 4616.39 420.452 4608.74 441.123C4601.09 461.794 4590.11 479.535 4575.79 494.346C4561.46 508.994 4544.37 520.306 4524.52 528.281C4504.82 536.094 4482.77 540 4458.35 540ZM4416.36 184.531V540H4355.08V184.531H4416.36ZM4792.34 544.883C4772.81 544.883 4755.15 541.709 4739.36 535.361C4723.73 528.851 4710.39 519.818 4699.32 508.262C4688.42 496.706 4680.03 483.115 4674.17 467.49C4668.31 451.865 4665.38 435.02 4665.38 416.953V407.188C4665.38 386.517 4668.4 367.799 4674.42 351.035C4680.44 334.271 4688.82 319.948 4699.56 308.066C4710.31 296.022 4723 286.826 4737.65 280.479C4752.3 274.131 4768.17 270.957 4785.26 270.957C4804.14 270.957 4820.66 274.131 4834.82 280.479C4848.98 286.826 4860.7 295.778 4869.97 307.334C4879.41 318.727 4886.41 332.318 4890.97 348.105C4895.69 363.893 4898.05 381.309 4898.05 400.352V425.498H4693.95V383.262H4839.95V378.623C4839.62 368.044 4837.5 358.115 4833.6 348.838C4829.85 339.561 4824.08 332.074 4816.26 326.377C4808.45 320.68 4798.03 317.832 4785.01 317.832C4775.25 317.832 4766.54 319.948 4758.89 324.18C4751.4 328.249 4745.14 334.189 4740.09 342.002C4735.05 349.814 4731.14 359.255 4728.37 370.322C4725.77 381.227 4724.47 393.516 4724.47 407.188V416.953C4724.47 428.509 4726.01 439.251 4729.11 449.18C4732.36 458.945 4737.08 467.49 4743.27 474.814C4749.45 482.139 4756.94 487.917 4765.73 492.148C4774.52 496.217 4784.53 498.252 4795.76 498.252C4809.92 498.252 4822.53 495.404 4833.6 489.707C4844.67 484.01 4854.27 475.954 4862.41 465.537L4893.41 495.566C4887.72 503.867 4880.31 511.842 4871.2 519.492C4862.08 526.979 4850.93 533.083 4837.75 537.803C4824.73 542.523 4809.59 544.883 4792.34 544.883ZM4751.32 238.486L4798.93 165H4865.34L4798.93 238.486H4751.32ZM5051.86 498.008C5061.46 498.008 5070.09 496.136 5077.74 492.393C5085.55 488.486 5091.82 483.115 5096.54 476.279C5101.42 469.443 5104.11 461.549 5104.59 452.598H5160.01C5159.69 469.688 5154.64 485.231 5144.88 499.229C5135.11 513.226 5122.17 524.375 5106.06 532.676C5089.95 540.814 5072.12 544.883 5052.59 544.883C5032.41 544.883 5014.83 541.465 4999.86 534.629C4984.88 527.63 4972.43 518.027 4962.5 505.82C4952.58 493.613 4945.09 479.535 4940.04 463.584C4935.16 447.633 4932.72 430.544 4932.72 412.314V403.77C4932.72 385.54 4935.16 368.451 4940.04 352.5C4945.09 336.387 4952.58 322.227 4962.5 310.02C4972.43 297.812 4984.88 288.291 4999.86 281.455C5014.83 274.456 5032.33 270.957 5052.35 270.957C5073.51 270.957 5092.06 275.189 5108.01 283.652C5123.96 291.953 5136.49 303.59 5145.61 318.564C5154.89 333.376 5159.69 350.628 5160.01 370.322H5104.59C5104.11 360.557 5101.66 351.768 5097.27 343.955C5093.04 335.98 5087.02 329.632 5079.2 324.912C5071.55 320.192 5062.36 317.832 5051.62 317.832C5039.73 317.832 5029.89 320.273 5022.07 325.156C5014.26 329.876 5008.16 336.387 5003.76 344.688C4999.37 352.826 4996.2 362.021 4994.24 372.275C4992.45 382.367 4991.56 392.865 4991.56 403.77V412.314C4991.56 423.219 4992.45 433.799 4994.24 444.053C4996.03 454.307 4999.12 463.503 5003.52 471.641C5008.08 479.616 5014.26 486.045 5022.07 490.928C5029.89 495.648 5039.82 498.008 5051.86 498.008ZM5264.26 326.133V540H5205.42V275.84H5261.58L5264.26 326.133ZM5345.07 274.131L5344.58 328.818C5341 328.167 5337.1 327.679 5332.87 327.354C5328.8 327.028 5324.73 326.865 5320.66 326.865C5310.57 326.865 5301.7 328.33 5294.05 331.26C5286.4 334.027 5279.97 338.096 5274.76 343.467C5269.71 348.675 5265.81 355.023 5263.04 362.51C5260.27 369.997 5258.65 378.379 5258.16 387.656L5244.73 388.633C5244.73 372.031 5246.36 356.65 5249.61 342.49C5252.87 328.33 5257.75 315.879 5264.26 305.137C5270.93 294.395 5279.24 286.012 5289.16 279.99C5299.26 273.968 5310.89 270.957 5324.08 270.957C5327.66 270.957 5331.48 271.283 5335.55 271.934C5339.78 272.585 5342.96 273.317 5345.07 274.131ZM5462.99 511.191L5534.77 275.84H5597.76L5491.8 580.283C5489.36 586.794 5486.19 593.874 5482.28 601.523C5478.37 609.173 5473.25 616.416 5466.9 623.252C5460.71 630.251 5452.98 635.866 5443.71 640.098C5434.43 644.492 5423.2 646.689 5410.01 646.689C5404.81 646.689 5399.76 646.201 5394.88 645.225C5390.16 644.411 5385.68 643.516 5381.45 642.539L5381.21 597.617C5382.83 597.78 5384.79 597.943 5387.06 598.105C5389.51 598.268 5391.46 598.35 5392.92 598.35C5402.69 598.35 5410.83 597.129 5417.34 594.688C5423.85 592.409 5429.14 588.665 5433.21 583.457C5437.44 578.249 5441.02 571.25 5443.95 562.461L5462.99 511.191ZM5422.46 275.84L5485.21 473.594L5495.71 535.605L5454.94 546.104L5358.99 275.84H5422.46ZM5690.53 326.621V641.562H5631.69V275.84H5685.89L5690.53 326.621ZM5862.65 405.479V410.605C5862.65 429.811 5860.37 447.633 5855.81 464.072C5851.42 480.348 5844.83 494.59 5836.04 506.797C5827.41 518.841 5816.75 528.2 5804.06 534.873C5791.36 541.546 5776.71 544.883 5760.11 544.883C5743.67 544.883 5729.27 541.872 5716.9 535.85C5704.69 529.665 5694.36 520.957 5685.89 509.727C5677.43 498.496 5670.59 485.312 5665.38 470.176C5660.34 454.876 5656.76 438.112 5654.64 419.883V400.107C5656.76 380.739 5660.34 363.161 5665.38 347.373C5670.59 331.585 5677.43 317.995 5685.89 306.602C5694.36 295.208 5704.69 286.419 5716.9 280.234C5729.11 274.049 5743.35 270.957 5759.62 270.957C5776.22 270.957 5790.95 274.212 5803.81 280.723C5816.67 287.07 5827.49 296.185 5836.28 308.066C5845.07 319.785 5851.66 333.945 5856.06 350.547C5860.45 366.986 5862.65 385.296 5862.65 405.479ZM5803.81 410.605V405.479C5803.81 393.271 5802.67 381.96 5800.39 371.543C5798.12 360.964 5794.54 351.686 5789.65 343.711C5784.77 335.736 5778.5 329.551 5770.85 325.156C5763.37 320.599 5754.33 318.32 5743.75 318.32C5733.34 318.32 5724.39 320.111 5716.9 323.691C5709.41 327.109 5703.15 331.911 5698.1 338.096C5693.05 344.281 5689.15 351.523 5686.38 359.824C5683.61 367.962 5681.66 376.833 5680.52 386.436V433.799C5682.47 445.518 5685.81 456.26 5690.53 466.025C5695.25 475.791 5701.92 483.604 5710.55 489.463C5719.34 495.16 5730.57 498.008 5744.24 498.008C5754.82 498.008 5763.85 495.729 5771.34 491.172C5778.83 486.615 5784.93 480.348 5789.65 472.373C5794.54 464.235 5798.12 454.876 5800.39 444.297C5802.67 433.717 5803.81 422.487 5803.81 410.605ZM6033.79 275.84V318.809H5884.87V275.84H6033.79ZM5927.84 211.143H5986.67V467.002C5986.67 475.14 5987.81 481.406 5990.09 485.801C5992.53 490.033 5995.87 492.881 6000.1 494.346C6004.33 495.811 6009.3 496.543 6014.99 496.543C6019.06 496.543 6022.97 496.299 6026.71 495.811C6030.46 495.322 6033.47 494.834 6035.75 494.346L6035.99 539.268C6031.11 540.732 6025.41 542.035 6018.9 543.174C6012.55 544.313 6005.23 544.883 5996.93 544.883C5983.42 544.883 5971.46 542.523 5961.04 537.803C5950.62 532.92 5942.48 525.026 5936.62 514.121C5930.77 503.216 5927.84 488.73 5927.84 470.664V211.143ZM6195.66 544.883C6176.13 544.883 6158.47 541.709 6142.68 535.361C6127.05 528.851 6113.71 519.818 6102.64 508.262C6091.74 496.706 6083.35 483.115 6077.49 467.49C6071.63 451.865 6068.71 435.02 6068.71 416.953V407.188C6068.71 386.517 6071.72 367.799 6077.74 351.035C6083.76 334.271 6092.14 319.948 6102.88 308.066C6113.63 296.022 6126.32 286.826 6140.97 280.479C6155.62 274.131 6171.49 270.957 6188.58 270.957C6207.46 270.957 6223.98 274.131 6238.14 280.479C6252.3 286.826 6264.02 295.778 6273.29 307.334C6282.74 318.727 6289.73 332.318 6294.29 348.105C6299.01 363.893 6301.37 381.309 6301.37 400.352V425.498H6097.27V383.262H6243.27V378.623C6242.94 368.044 6240.82 358.115 6236.92 348.838C6233.17 339.561 6227.4 332.074 6219.58 326.377C6211.77 320.68 6201.35 317.832 6188.33 317.832C6178.57 317.832 6169.86 319.948 6162.21 324.18C6154.72 328.249 6148.46 334.189 6143.41 342.002C6138.37 349.814 6134.46 359.255 6131.69 370.322C6129.09 381.227 6127.79 393.516 6127.79 407.188V416.953C6127.79 428.509 6129.33 439.251 6132.43 449.18C6135.68 458.945 6140.4 467.49 6146.59 474.814C6152.77 482.139 6160.26 487.917 6169.05 492.148C6177.84 496.217 6187.85 498.252 6199.08 498.252C6213.24 498.252 6225.85 495.404 6236.92 489.707C6247.99 484.01 6257.59 475.954 6265.73 465.537L6296.73 495.566C6291.04 503.867 6283.63 511.842 6274.52 519.492C6265.4 526.979 6254.25 533.083 6241.07 537.803C6228.05 542.523 6212.91 544.883 6195.66 544.883Z" fill="black"/>
<defs>
<linearGradient id="paint0_linear_11_31" x1="604.094" y1="474.619" x2="599.196" y2="589.534" gradientUnits="userSpaceOnUse">
<stop stop-color="#182EF7"/>
<stop offset="1" stop-color="#FB4DA0"/>
</linearGradient>
<linearGradient id="paint1_linear_11_31" x1="639.403" y1="0" x2="0" y2="639.403" gradientUnits="userSpaceOnUse">
<stop stop-color="#182EF7"/>
<stop offset="0.314017" stop-color="#4634E5"/>
<stop offset="0.664081" stop-color="#D648AE"/>
<stop offset="0.979167" stop-color="#FB4DA0"/>
</linearGradient>
<linearGradient id="paint2_linear_11_31" x1="744.823" y1="513.654" x2="744.823" y2="652.191" gradientUnits="userSpaceOnUse">
<stop stop-color="#182EF7"/>
<stop offset="0.979167" stop-color="#FB4DA0"/>
</linearGradient>
</defs>
</svg>
